<mxfile host="app.diagrams.net" modified="2023-12-03T21:58:27.816Z" agent="Mozilla/5.0 (X11; Linux x86_64) AppleWebKit/537.36 (KHTML, like Gecko) Chrome/119.0.0.0 Safari/537.36" version="22.1.5" etag="7Dm68pv0_0NE9DYRNgpJ" type="github">
  <diagram name="Page-1" id="tzEkf4GSreW8ljqzY9um">
    <mxGraphModel>
      <root>
        <mxCell id="0" />
        <mxCell id="1" parent="0" />
      </root>
    </mxGraphModel>
  </diagram>
</mxfile>
